<?xml version="1.0" encoding="UTF-8" standalone="no"?>
<svg
   xmlns:dc="http://purl.org/dc/elements/1.1/"
   xmlns:cc="http://creativecommons.org/ns#"
   xmlns:rdf="http://www.w3.org/1999/02/22-rdf-syntax-ns#"
   xmlns:svg="http://www.w3.org/2000/svg"
   xmlns="http://www.w3.org/2000/svg"
   xmlns:sodipodi="http://sodipodi.sourceforge.net/DTD/sodipodi-0.dtd"
   xmlns:inkscape="http://www.inkscape.org/namespaces/inkscape"
   width="180"
   height="185"
   viewBox="0 0 180 185"
   id="Symbol_vote"
   sodipodi:version="0.32"
   inkscape:version="0.48.4 r9939"
   sodipodi:docname="Symbol_deferred.svg"
   inkscape:output_extension="org.inkscape.output.svg.inkscape"
   version="1.1">
  <metadata
     id="metadata2679">
    <rdf:RDF>
      <cc:Work
         rdf:about="">
        <dc:format>image/svg+xml</dc:format>
        <dc:type
           rdf:resource="http://purl.org/dc/dcmitype/StillImage" />
      </cc:Work>
    </rdf:RDF>
  </metadata>
  <defs
     id="defs2677" />
  <sodipodi:namedview
     inkscape:window-height="738"
     inkscape:window-width="1280"
     inkscape:pageshadow="2"
     inkscape:pageopacity="0.0"
     guidetolerance="10.0"
     gridtolerance="10.0"
     objecttolerance="10.0"
     borderopacity="1.0"
     bordercolor="#666666"
     pagecolor="#ffffff"
     id="base"
     inkscape:zoom="1"
     inkscape:cx="89.839227"
     inkscape:cy="93.327077"
     inkscape:window-x="-8"
     inkscape:window-y="-8"
     inkscape:current-layer="Symbol_vote"
     showgrid="false"
     inkscape:window-maximized="1" />
  <g
     id="symbol"
     transform="matrix(0.99989141,0,0,1.0001292,2.998649,3.9976271)">
    <ellipse
       transform="matrix(-0.1396,-0.9902,0.9902,-0.1396,3.7068,182.1998)"
       enable-background="new    "
       cx="81.010002"
       cy="89.489998"
       rx="87.606003"
       ry="80.862"
       id="ellipse2670"
       d="m 168.616,89.489998 c 0,44.658852 -39.22254,80.862002 -87.605998,80.862002 -48.383459,0 -87.6060027,-36.20315 -87.6060027,-80.862002 0,-44.658849 39.2225437,-80.8619996 87.6060027,-80.8619996 48.383458,0 87.605998,36.2031506 87.605998,80.8619996 z"
       sodipodi:cx="81.010002"
       sodipodi:cy="89.489998"
       sodipodi:rx="87.606003"
       sodipodi:ry="80.862"
       style="opacity:0.19609997" />
    <ellipse
       id="path1306"
       transform="matrix(-0.1396,-0.9902,0.9902,-0.1396,19.3624,191.8031)"
       cx="93.010002"
       cy="87.489998"
       rx="87.606003"
       ry="80.862"
       sodipodi:cx="93.010002"
       sodipodi:cy="87.489998"
       sodipodi:rx="87.606003"
       sodipodi:ry="80.862"
       style="fill:#7b68ee"
       d="m 180.616,87.489998 c 0,44.658852 -39.22254,80.862002 -87.605998,80.862002 -48.383459,0 -87.6060027,-36.20315 -87.6060027,-80.862002 0,-44.658849 39.2225437,-80.8619996 87.6060027,-80.8619996 48.383458,0 87.605998,36.2031506 87.605998,80.8619996 z" />
    <path
       id="path1308"
       d="m 157.067,78.462 c 5.371,38.333 -18.953,73.45 -54.332,78.437 C 67.358,161.886 34.324,134.855 28.954,96.521 23.582,58.188 47.907,23.072 83.285,18.085 c 35.377,-4.987 68.411,22.045 73.782,60.377 l 0,0 z"
       style="fill:#efefef"
       inkscape:connector-curvature="0" />
    <path
       d="m 89.174,41.375 57.08,42.569 -54.095,39.836 3.583,-28.253 c 0,0 -10.747,-2.354 -20.897,8.828 -10.149,11.185 -17.314,30.02 -17.314,30.02 0,0 -2.984,-39.437 14.928,-49.442 C 71.86,81.989 96.34,72.571 96.34,72.571 L 89.174,41.375 z"
       id="path2674"
       style="fill:#7b68ee"
       inkscape:connector-curvature="0" />
  </g>
</svg>
